HIERARCHY
ROOT Hips
{
	OFFSET 0.000000 0.000000 0.000000
	CHANNELS 6 Xposition Yposition Zposition Yrotation Xrotation Zrotation
	JOINT Chest
	{
		OFFSET 0.000000 -0.009281 11.569106
		CHANNELS 3 Yrotation Xrotation Zrotation
		JOINT Chest2
		{
			OFFSET -0.000000 0.016865 9.269641
			CHANNELS 3 Yrotation Xrotation Zrotation
			JOINT Chest3
			{
				OFFSET -0.000000 0.000001 8.374491
				CHANNELS 3 Yrotation Xrotation Zrotation
				JOINT Chest4
				{
					OFFSET -0.000000 0.000001 8.374493
					CHANNELS 3 Yrotation Xrotation Zrotation
					JOINT Neck
					{
						OFFSET -0.000000 0.000002 12.152554
						CHANNELS 3 Yrotation Xrotation Zrotation
						JOINT Head
						{
							OFFSET -0.000000 0.040101 7.802319
							CHANNELS 3 Yrotation Xrotation Zrotation
							End Site
							{
								OFFSET -0.000000 0.020947 14.853096
							}
						}
					}
					JOINT RightCollar
					{
						OFFSET 2.894404 0.000001 6.791374
						CHANNELS 3 Yrotation Xrotation Zrotation
						JOINT RightShoulder
						{
							OFFSET 13.574684 0.000001 0.000000
							CHANNELS 3 Yrotation Xrotation Zrotation
							JOINT RightElbow
							{
								OFFSET 23.923903 0.000002 0.000000
								CHANNELS 3 Yrotation Xrotation Zrotation
								JOINT RightWrist
								{
									OFFSET 19.846718 0.012767 0.000000
									CHANNELS 3 Yrotation Xrotation Zrotation
									End Site
									{
										OFFSET 14.973145 0.000001 0.000000
									}
								}
							}
						}
					}
					JOINT LeftCollar
					{
						OFFSET -2.894404 0.000001 6.791374
						CHANNELS 3 Yrotation Xrotation Zrotation
						JOINT LeftShoulder
						{
							OFFSET -13.574684 -0.000001 0.000000
							CHANNELS 3 Yrotation Xrotation Zrotation
							JOINT LeftElbow
							{
								OFFSET -23.923903 -0.000002 0.000000
								CHANNELS 3 Yrotation Xrotation Zrotation
								JOINT LeftWrist
								{
									OFFSET -19.846718 0.012763 0.000000
									CHANNELS 3 Yrotation Xrotation Zrotation
									End Site
									{
										OFFSET -14.973145 -0.000001 0.000000
									}
								}
							}
						}
					}
				}
			}
		}
	}
	JOINT RightHip
	{
		OFFSET 9.469263 0.004643 0.045487
		CHANNELS 3 Yrotation Xrotation Zrotation
		JOINT RightKnee
		{
			OFFSET 0.000000 0.002661 -40.478676
			CHANNELS 3 Yrotation Xrotation Zrotation
			JOINT RightAnkle
			{
				OFFSET 0.000000 0.049106 -35.224068
				CHANNELS 3 Yrotation Xrotation Zrotation
				JOINT RightToe
				{
					OFFSET -0.000001 12.539529 -6.151390
					CHANNELS 3 Yrotation Xrotation Zrotation
					End Site
					{
						OFFSET -0.000001 5.044994 -1.291870
					}
				}
			}
		}
	}
	JOINT LeftHip
	{
		OFFSET -9.469263 0.004641 0.045487
		CHANNELS 3 Yrotation Xrotation Zrotation
		JOINT LeftKnee
		{
			OFFSET 0.000000 0.002661 -40.478676
			CHANNELS 3 Yrotation Xrotation Zrotation
			JOINT LeftAnkle
			{
				OFFSET 0.000000 0.049106 -35.224068
				CHANNELS 3 Yrotation Xrotation Zrotation
				JOINT LeftToe
				{
					OFFSET -0.000001 12.539529 -6.151390
					CHANNELS 3 Yrotation Xrotation Zrotation
					End Site
					{
						OFFSET -0.000001 5.044994 -1.291870
					}
				}
			}
		}
	}
}
MOTION
Frames: 15
Frame Time: 0.016667
-57.502346 -13.049581 80.893257 -8.673297 -1.625940 -104.797819 0.049544 -2.835490 2.505844 0.415439 -0.985568 0.553982 0.415439 -0.985567 0.553982 0.312466 -0.738801 0.416147 -0.895862 -20.144082 -3.902926 -2.816027 -1.368836 -7.383022 9.865140 -6.118976 -1.545839 77.689577 -5.021844 28.910521 4.845215 -13.283966 47.265944 -25.802231 11.731993 32.840461 -6.387791 -2.020889 6.514631 -77.037909 19.436249 16.824472 16.098443 17.711193 15.692274 12.447928 -2.052380 -8.679267 -8.874532 -7.929544 -6.618343 4.896885 -47.023680 -2.537698 18.385580 -16.542783 7.543784 -27.313501 55.841933 -13.813645 -12.008073 3.558744 5.979537 -3.474041 -4.203860 5.356137 9.643780 -10.018189 3.297150 -0.390452 1.651112 -0.824491 
-55.531586 -12.941833 80.760246 -8.337348 -0.614675 -103.909211 0.137085 -2.438207 1.724860 0.265162 -0.788070 0.547364 0.265162 -0.788069 0.547365 0.199575 -0.590816 0.410858 -1.412555 -20.196822 -3.674563 -3.684334 -1.489230 -7.120851 9.719486 -5.409167 -1.661122 79.025644 -4.376751 26.829762 7.744110 -13.503952 46.893893 -26.757382 13.844326 35.433754 -6.614687 -1.572439 6.871371 -75.366787 20.776548 16.901361 15.741919 18.268234 15.179872 11.856252 -1.553635 -8.219936 -10.051609 -4.182468 -7.571351 3.010024 -52.696784 -0.612597 20.527795 -20.126366 8.601614 -32.385718 55.779423 -18.410365 -13.098624 2.436453 4.044199 -4.342407 -4.080448 5.783339 9.834352 -7.956091 4.195129 -0.056290 0.711177 -0.694405 
-53.637180 -12.835107 80.645844 -7.961334 0.338202 -103.128002 0.148912 -2.105829 1.081881 0.109570 -0.640346 0.521948 0.109570 -0.640346 0.521948 0.082723 -0.480167 0.391572 -1.849396 -20.177072 -3.440612 -4.410127 -1.469001 -6.827605 9.521898 -5.077768 -1.741780 80.388506 -3.040943 25.165741 10.810612 -14.308884 45.904991 -27.687879 16.598073 38.096814 -7.185521 -0.932499 6.918924 -73.541637 21.698136 16.738646 15.308450 19.116822 14.740207 10.915113 -0.374249 -7.899208 -10.710805 -0.538850 -8.055590 -0.124259 -57.372264 3.726847 22.257444 -21.180640 7.603362 -31.486052 50.728809 -18.115427 -14.053317 1.524122 2.243884 -5.055083 -3.873086 6.407871 9.993723 -6.489758 4.696511 0.177839 0.226196 -0.532279 
-51.900787 -12.697486 80.558762 -7.464774 1.100215 -102.397745 0.088331 -1.727925 0.616731 -0.010979 -0.566052 0.504481 -0.010979 -0.566054 0.504483 -0.007767 -0.424550 0.378350 -2.136607 -20.066746 -3.266513 -4.887259 -1.273630 -6.603293 9.309880 -5.049150 -1.843229 81.733670 -1.337259 23.847192 13.436258 -15.262539 44.504413 -28.415938 19.646790 40.395808 -7.658159 -0.543252 6.790867 -72.262281 22.222972 15.797659 14.864237 19.936993 14.383613 10.012021 1.259330 -7.875139 -10.621066 3.195823 -7.730803 -3.692875 -61.137092 8.279943 23.134949 -20.334202 6.030675 -17.996418 35.502688 -8.316473 -15.001045 0.806573 0.483256 -5.402107 -3.830715 7.239799 10.275499 -5.073733 5.078688 0.184195 -0.082767 -0.548478 
-50.212658 -12.538375 80.499763 -7.011727 1.647191 -101.965148 -0.015401 -1.420440 0.571892 -0.087388 -0.526885 0.483348 -0.087388 -0.526885 0.483347 -0.065124 -0.395232 0.362431 -2.295751 -19.926341 -3.145637 -5.149163 -1.016578 -6.439294 9.305013 -4.949098 -1.835219 82.642366 0.146186 22.344686 15.285424 -15.599916 42.880706 -28.950962 22.622507 42.478873 -7.934109 -0.640325 6.569731 -71.772126 22.626207 14.008096 14.400740 20.578796 14.018921 9.570063 2.946565 -8.378809 -9.938261 7.136655 -6.202559 -5.746222 -64.165201 11.015160 22.702646 -18.623919 4.149310 -9.383094 21.533551 -3.283537 -15.907454 0.065979 -0.785561 -5.394998 -3.704456 8.055102 10.557105 -3.870873 5.326849 0.069776 -0.224963 -0.671374 
-48.596886 -12.414275 80.451141 -6.630034 2.085089 -101.440890 -0.144756 -1.136500 0.575240 -0.152292 -0.492998 0.437647 -0.152291 -0.492998 0.437647 -0.113864 -0.369858 0.328109 -2.338134 -19.824525 -3.062510 -5.207357 -0.825035 -6.306545 9.381143 -4.879661 -1.869658 83.104011 0.922786 20.592636 16.655032 -14.868277 41.118302 -29.415774 25.482864 44.782378 -8.056457 -1.196651 6.280349 -71.980112 22.925950 11.615092 13.824013 21.132513 13.509337 9.810225 4.302677 -9.525824 -8.920574 11.133844 -3.865634 -6.058370 -66.344059 11.692099 21.436346 -16.591776 2.394017 -3.696252 10.950392 -0.747432 -16.669878 -0.855178 -1.491010 -5.324682 -3.454341 8.512841 10.792147 -2.811612 5.218776 -0.011705 -0.261768 -0.691090 
-47.024975 -12.335669 80.409996 -6.400114 2.552753 -100.659954 -0.361395 -0.913737 0.480912 -0.187789 -0.450695 0.341732 -0.187788 -0.450696 0.341734 -0.140588 -0.338126 0.256159 -2.304799 -19.792905 -3.005322 -5.131061 -0.759971 -6.193897 9.411816 -4.914666 -1.871043 83.195065 1.381615 18.638563 17.744739 -13.421368 39.094138 -29.992498 28.433517 47.176397 -8.303513 -1.871898 5.833236 -72.491304 23.036864 9.114234 13.078145 21.743757 12.783356 10.660970 5.137371 -11.236915 -7.925710 14.871089 -1.072481 -5.167311 -67.573500 10.502041 19.607462 -14.274474 1.206423 -4.769282 12.151246 -1.501696 -17.332568 -1.845730 -1.709116 -5.283448 -3.447928 8.197759 10.830196 -1.846506 4.989461 0.025651 -0.161649 -0.466311 
-45.563675 -12.288527 80.360359 -6.194383 2.968619 -99.476337 -0.595926 -0.671299 0.183003 -0.195241 -0.399086 0.218101 -0.195240 -0.399087 0.218100 -0.146288 -0.299385 0.163447 -2.179005 -19.829578 -3.010892 -4.901288 -0.819379 -6.163531 9.332679 -4.902864 -1.965360 83.189293 1.835897 16.553073 18.583027 -11.624614 36.593985 -30.799358 31.418051 49.107165 -8.679590 -2.633541 5.112333 -73.050779 22.986160 6.499065 12.152757 22.438705 11.953018 11.782711 5.455305 -13.256663 -7.057312 18.275539 1.744870 -3.352324 -67.793323 7.263158 17.387700 -12.159574 0.746480 -4.749967 13.845970 -1.423696 -17.936874 -2.778028 -2.027887 -5.114620 -3.678990 7.812335 10.806818 -0.892058 4.610228 0.054034 -0.017435 -0.222742 
-44.195656 -12.291578 80.298141 -5.992743 3.080239 -98.102731 -0.635522 -0.448692 -0.124026 -0.177852 -0.345981 0.087208 -0.177852 -0.345980 0.087207 -0.133340 -0.259510 0.065304 -1.961042 -19.919407 -3.091099 -4.523265 -0.976031 -6.238374 9.294198 -4.822115 -1.935364 83.059465 2.668248 14.430007 19.050478 -9.653319 33.545439 -31.721946 34.118475 50.192813 -9.062500 -3.342649 4.362441 -73.606066 22.715841 3.820236 11.064100 23.041358 10.956772 12.802808 5.288883 -15.250540 -5.997675 21.323627 4.532286 -1.253263 -66.891936 2.701140 15.071883 -10.740883 0.919370 -3.879080 15.763725 -0.878184 -18.306821 -3.663547 -2.442784 -4.732862 -4.114351 7.687311 10.845578 0.315222 4.176258 -0.050491 -0.041895 -0.126737 
-42.911381 -12.355432 80.241211 -5.795918 2.933133 -96.561984 -0.547447 -0.229492 -0.464435 -0.136524 -0.283118 -0.031792 -0.136524 -0.283118 -0.031792 -0.102408 -0.212331 -0.023908 -1.669079 -20.062417 -3.242487 -4.029117 -1.230823 -6.418183 9.355833 -4.713553 -1.782866 82.698257 3.749402 12.281140 19.022056 -7.382570 30.054192 -32.213651 36.140013 50.627886 -9.292903 -3.852663 3.919957 -74.259715 22.024053 1.233876 9.823646 23.347875 9.649353 13.458568 4.880014 -16.863993 -4.820695 23.789356 7.091531 -0.143521 -64.539407 -1.425854 13.131806 -9.965932 1.610795 -2.586176 17.428814 -0.353089 -18.409662 -4.558221 -3.074152 -4.243474 -4.617557 7.676810 10.959308 1.574348 3.760795 -0.261407 -0.123870 -0.035544 
-41.642334 -12.484982 80.210236 -5.808766 2.580658 -94.976827 -0.397592 -0.198087 -0.734430 -0.078765 -0.208137 -0.130378 -0.078766 -0.208138 -0.130378 -0.059118 -0.156087 -0.097811 -1.305829 -20.241797 -3.473774 -3.427299 -1.552944 -6.721066 9.471850 -4.494955 -1.697240 82.055584 4.739502 10.009310 18.509942 -4.699962 26.167590 -31.848735 37.280105 50.880418 -9.389725 -4.194045 3.705632 -74.942734 20.981971 -1.165768 8.371219 23.324848 7.944322 13.623447 4.450144 -17.876710 -3.585882 25.391489 9.522388 0.064720 -60.905808 -4.416527 11.528739 -9.438753 2.101937 -0.997629 18.403163 0.125322 -18.333228 -5.691029 -3.911412 -3.633669 -5.046520 7.607380 11.138782 2.679824 3.723897 -0.556878 -0.162553 0.009581 
-40.378334 -12.664131 80.206169 -5.896237 2.123784 -93.412905 -0.242027 -0.179383 -0.835999 -0.020895 -0.130950 -0.206946 -0.020895 -0.130949 -0.206946 -0.015716 -0.098204 -0.155213 -0.845639 -20.427993 -3.807178 -2.679250 -1.886523 -7.181525 9.626995 -4.291916 -1.703762 81.157954 5.408421 7.809130 17.362735 -1.696389 21.797131 -30.865003 37.745558 50.946839 -9.518657 -4.496518 3.339284 -75.524885 19.918058 -3.434628 6.762467 23.131972 5.865932 13.265566 3.988310 -18.237406 -2.355365 26.450628 11.809519 0.120077 -56.343084 -6.461990 9.896691 -9.201537 1.749309 0.847807 18.275853 0.616036 -18.095567 -6.939968 -4.786964 -2.975933 -5.395442 7.492087 11.307546 3.736234 3.827141 -0.837496 -0.197921 0.006646 
-39.069458 -12.903552 80.224304 -6.120775 1.616943 -91.805952 -0.116289 -0.247736 -0.802064 0.026003 -0.065746 -0.252609 0.026003 -0.065745 -0.252609 0.019475 -0.049319 -0.189454 -0.258917 -20.587829 -4.268503 -1.740472 -2.168442 -7.839222 9.884075 -4.037734 -1.746672 80.115223 5.848427 5.581986 15.284917 1.063097 17.038134 -29.746533 37.736723 50.238767 -9.642923 -5.000727 2.667287 -76.106667 18.978879 -5.849397 5.042803 23.022602 3.479871 12.423207 3.266209 -18.087939 -1.271048 26.878294 13.605967 0.113577 -50.851581 -7.416596 8.072324 -9.160472 0.689033 2.657265 16.231569 0.950180 -17.665482 -8.391377 -5.451545 -2.370969 -5.695384 7.314316 11.420040 4.854260 3.737725 -1.042966 -0.237391 -0.010364 
-37.724174 -13.182555 80.256447 -6.381645 1.214071 -89.815581 -0.148734 -0.299567 -0.966235 0.070641 -0.025233 -0.275593 0.070641 -0.025233 -0.275593 0.052970 -0.018957 -0.206692 0.451354 -20.698227 -4.846533 -0.614311 -2.353969 -8.675273 10.159415 -3.800544 -1.805593 79.079930 6.104148 3.451714 12.309335 3.269739 11.958042 -28.320860 37.028822 48.376403 -9.625354 -5.617468 2.027384 -76.841807 17.903589 -8.417716 3.250109 23.039372 0.884590 11.197614 2.155584 -17.643898 -0.656531 26.727408 14.307850 -0.158337 -44.646252 -6.952805 6.312839 -9.322560 -0.730446 4.036196 12.048437 1.087576 -17.084808 -9.955414 -6.154601 -1.859384 -5.900876 7.044124 11.442904 5.813579 3.340934 -1.159638 -0.162104 0.008787 
-36.305298 -13.503195 80.295929 -6.767253 0.823822 -87.676994 -0.213265 -0.427560 -1.135738 0.134493 -0.002653 -0.286378 0.134493 -0.002654 -0.286378 0.100868 -0.002052 -0.214783 1.242150 -20.746281 -5.515823 0.627588 -2.419321 -9.655820 10.366435 -3.597764 -1.821471 78.061091 6.229620 1.260761 8.689844 4.535656 6.782335 -26.118404 35.711005 45.493865 -9.576694 -5.860725 1.528213 -77.570226 16.501831 -10.584816 1.453910 23.065035 -1.840734 9.800785 0.917819 -17.079909 -0.332657 25.847089 14.460670 -0.520629 -37.990632 -5.273350 5.386694 -9.534498 -2.166447 4.528245 5.748658 0.899977 -16.322277 -11.656107 -6.776403 -1.400200 -6.142705 6.701239 11.381376 6.793106 2.801787 -1.221397 -0.037134 0.027526 
